<?xml version="1.0" encoding="UTF-8" standalone="no"?>
<svg
   xmlns:dc="http://purl.org/dc/elements/1.1/"
   xmlns:cc="http://creativecommons.org/ns#"
   xmlns:rdf="http://www.w3.org/1999/02/22-rdf-syntax-ns#"
   xmlns:svg="http://www.w3.org/2000/svg"
   xmlns="http://www.w3.org/2000/svg"
   xmlns:sodipodi="http://sodipodi.sourceforge.net/DTD/sodipodi-0.dtd"
   xmlns:inkscape="http://www.inkscape.org/namespaces/inkscape"
   xml:space="preserve"
   version="1.1"
   style="shape-rendering:geometricPrecision;text-rendering:geometricPrecision;image-rendering:optimizeQuality;"
   viewBox="0 0 240 321.25"
   x="0px"
   y="0px"
   fill-rule="evenodd"
   clip-rule="evenodd"
   id="svg2"
   inkscape:version="0.91 r13725"
   sodipodi:docname="spinner.svg"><metadata
     id="metadata58"><rdf:RDF><cc:Work
         rdf:about=""><dc:format>image/svg+xml</dc:format><dc:type
           rdf:resource="http://purl.org/dc/dcmitype/StillImage" /><dc:title></dc:title></cc:Work></rdf:RDF></metadata><sodipodi:namedview
     pagecolor="#ffffff"
     bordercolor="#666666"
     borderopacity="1"
     objecttolerance="10"
     gridtolerance="10"
     guidetolerance="10"
     inkscape:pageopacity="0"
     inkscape:pageshadow="2"
     inkscape:window-width="1132"
     inkscape:window-height="777"
     id="namedview56"
     showgrid="false"
     inkscape:zoom="1.39"
     inkscape:cx="120"
     inkscape:cy="160.625"
     inkscape:window-x="85"
     inkscape:window-y="0"
     inkscape:window-maximized="0"
     inkscape:current-layer="svg2" /><defs
     id="defs4"><style
       type="text/css"
       id="style6">
   
    .fil0 {fill:black}
    .fil1 {fill:black;fill-rule:nonzero}
   
  </style></defs><g
     id="g8"><path
       class="fil0"
       d="M75 243c22,13 57,13 78,1 13,-9 19,3 0,9 -48,15 -84,-14 -78,-10z"
       id="path10" /><path
       class="fil0"
       d="M54 39c-23,10 -43,38 -45,63 0,15 -14,13 -7,-6 15,-47 59,-60 52,-57z"
       id="path12" /><path
       class="fil0"
       d="M56 54c-17,8 -32,30 -32,48 0,12 -10,11 -6,-4 10,-36 43,-46 38,-44z"
       id="path14" /><path
       class="fil0"
       d="M87 233c16,9 42,9 57,-1 10,-7 15,2 1,7 -36,12 -63,-9 -58,-6z"
       id="path16" /><path
       class="fil0"
       d="M59 70c-12,5 -21,20 -22,32 0,8 -6,7 -4,-3 7,-24 29,-31 26,-29z"
       id="path18" /><path
       class="fil0"
       d="M98 221c11,6 28,6 38,0 7,-5 10,1 0,4 -23,8 -41,-6 -38,-4z"
       id="path20" /><path
       class="fil0"
       d="M239 109c-3,-25 -24,-53 -46,-62 -15,-5 -9,-17 7,-5 41,28 40,74 39,67z"
       id="path22" /><path
       class="fil0"
       d="M224 106c-3,-19 -19,-39 -36,-45 -11,-4 -7,-13 5,-5 31,21 32,55 31,50z"
       id="path24" /><path
       class="fil0"
       d="M208 104c-2,-13 -13,-26 -24,-30 -8,-3 -5,-9 4,-3 20,14 20,37 20,33z"
       id="path26" /><path
       class="fil1"
       d="M16 201c13,14 38,18 54,6 18,-13 20,-35 50,-35 31,0 30,21 50,35 16,12 40,8 54,-6 27,-26 10,-73 -28,-75 -17,-1 -29,-3 -38,-20 -6,-11 -7,-27 0,-38 7,-11 8,-25 3,-37 -7,-17 -21,-27 -39,-28 -17,-1 -33,8 -41,23 -7,14 -7,29 1,42 6,11 6,27 0,38 -9,17 -21,19 -38,20 -38,2 -55,49 -28,75zm-2 2c-28,-28 -11,-77 30,-80 16,-1 27,-3 35,-18 6,-10 7,-25 1,-35 -8,-14 -9,-31 -1,-45 8,-17 25,-26 43,-25 19,1 35,12 41,30 5,13 4,27 -3,40 -6,10 -5,25 0,35 8,15 20,17 36,18 40,3 58,52 30,80 -15,15 -41,19 -58,6 -19,-13 -19,-34 -48,-34 -29,0 -31,21 -48,34 -17,13 -44,9 -58,-6z"
       id="path28" /><circle
       class="fil0"
       cx="193"
       cy="170"
       r="18"
       id="circle30" /><path
       class="fil1"
       d="M163 187c-9,-16 -3,-37 14,-46 15,-8 35,-4 45,11 -11,-11 -28,-14 -42,-6 -15,8 -22,25 -17,41z"
       id="path32" /><path
       class="fil1"
       d="M196 200c5,3 11,2 16,-1 6,-3 9,-9 9,-15 -3,10 -12,16 -22,16 -1,0 -2,0 -3,0z"
       id="path34" /><path
       class="fil1"
       d="M90 146c-9,-16 -3,-37 14,-46 15,-9 35,-4 45,11 -11,-11 -28,-14 -42,-6 -15,8 -22,25 -17,41z"
       id="path36" /><path
       class="fil1"
       d="M90 64c-9,-17 -3,-37 14,-46 15,-9 35,-5 45,11 -11,-11 -28,-14 -42,-7 -15,8 -22,26 -17,42z"
       id="path38" /><circle
       class="fil0"
       cx="120"
       cy="47"
       r="18"
       id="circle40" /><path
       class="fil1"
       d="M122 159c5,3 11,2 16,-1 5,-3 8,-9 8,-15 -3,10 -12,16 -22,16 -1,0 -1,0 -2,0z"
       id="path42" /><path
       class="fil1"
       d="M123 77c5,2 11,2 16,-1 5,-3 9,-9 9,-15 -4,9 -12,16 -23,16 0,0 -1,0 -2,0z"
       id="path44" /><circle
       class="fil0"
       cx="47"
       cy="170"
       r="18"
       id="circle46" /><path
       class="fil1"
       d="M16 187c-9,-16 -3,-37 14,-46 15,-8 35,-4 46,11 -12,-11 -29,-14 -43,-6 -15,8 -22,25 -17,41z"
       id="path48" /><path
       class="fil1"
       d="M50 200c5,3 11,2 16,-1 5,-3 8,-9 8,-15 -3,10 -12,16 -22,16 -1,0 -1,0 -2,0z"
       id="path50" /></g></svg>